# xmcd
#
# Track frame offsets:
#	183
#	14413
#	28085
#	39980
#	60505
#	73163
#	99455
#	114073
#	123605
#	138700
#	160855
#	178363
#
# Disc length: 2574 seconds
#
# Revision: 0
# Processed by: cddbd v1.5.1PL2 Copyright (c) Steve Scherf et al.
# Submitted via: dBpowerAMP V4.0
#
DISCID=a60a0c0c
DTITLE=Various Artist - Soul Spectacular! (Bonus Disk)
DYEAR=2002
DGENRE=Soul
TTITLE0=Sam Moore - Soul Man
TTITLE1=Littlle Anthony and The Original Imperials - Take Me Back
TTITLE2=Fontella Bass - Rescue Me
TTITLE3=The Miracles - OOO Baby Baby
TTITLE4=Jerry Butler - Only The Strong Survive
TTITLE5=Percy Sledge - When a Man Loves a Woman
TTITLE6=The Impressions - It's All Right
TTITLE7=The Illey Brothers - That Lady
TTITLE8=Little Anthony and The Origional Imperials - I'm On the Outside (Looking In)
TTITLE9=Chi-Lites - Have You Seen Her
TTITLE10=Chi-Lites - Oh Girl
TTITLE11=The Impressions - People Get Ready
EXTD=
EXTT0=
EXTT1=
EXTT2=
EXTT3=
EXTT4=
EXTT5=
EXTT6=
EXTT7=
EXTT8=
EXTT9=
EXTT10=
EXTT11=
PLAYORDER=
